HIERARCHY
ROOT Hips
{
	OFFSET 46.568001 -33.702217 99.142395
	CHANNELS 6 Xposition Yposition Zposition Xrotation Yrotation Zrotation
	JOINT spine
	{
		OFFSET 0.000000 -0.477356 8.301041
		CHANNELS 3 Xrotation Yrotation Zrotation
		JOINT spine1
		{
			OFFSET 0.000000 0.000000 10.456497
			CHANNELS 3 Xrotation Yrotation Zrotation
			JOINT spine2
			{
				OFFSET 0.000000 0.000000 10.019203
				CHANNELS 3 Xrotation Yrotation Zrotation
				JOINT Neck
				{
					OFFSET 0.000000 -1.226418 25.723503
					CHANNELS 3 Xrotation Yrotation Zrotation
					JOINT Head
					{
						OFFSET 0.000000 0.000000 7.771744
						CHANNELS 3 Xrotation Yrotation Zrotation
						End Site
						{
							OFFSET 0.000000 6.203938 18.811996
						}
					}
				}
				JOINT RightShoulder
				{
					OFFSET -4.218800 0.587437 10.820000
					CHANNELS 3 Xrotation Yrotation Zrotation
					JOINT RightArm
					{
						OFFSET 0.000000 -0.000004 14.191406
						CHANNELS 3 Xrotation Yrotation Zrotation
						JOINT RightArmRoll
						{
							OFFSET 0.000000 0.000000 7.164078
							CHANNELS 3 Xrotation Yrotation Zrotation
							JOINT RightForeArm
							{
								OFFSET 0.000000 -0.000004 20.866501
								CHANNELS 3 Xrotation Yrotation Zrotation
								JOINT RightForeArmRoll
								{
									OFFSET 0.000000 0.000000 8.039215
									CHANNELS 3 Xrotation Yrotation Zrotation
									JOINT RightHand
									{
										OFFSET 0.000000 -0.000004 16.132996
										CHANNELS 3 Xrotation Yrotation Zrotation
										End Site
										{
											OFFSET 0.000000 0.000000 0.100006
										}
									}
								}
							}
						}
					}
				}
				JOINT LeftShoulder
				{
					OFFSET 4.218800 0.587437 10.820000
					CHANNELS 3 Xrotation Yrotation Zrotation
					JOINT LeftArm
					{
						OFFSET 0.000000 -0.000004 14.191406
						CHANNELS 3 Xrotation Yrotation Zrotation
						JOINT LeftArmRoll
						{
							OFFSET 0.000000 0.000000 7.164078
							CHANNELS 3 Xrotation Yrotation Zrotation
							JOINT LeftForeArm
							{
								OFFSET 0.000000 -0.000004 20.866501
								CHANNELS 3 Xrotation Yrotation Zrotation
								JOINT LeftForeArmRoll
								{
									OFFSET 0.000000 0.000000 8.039215
									CHANNELS 3 Xrotation Yrotation Zrotation
									JOINT LeftHand
									{
										OFFSET 0.000000 -0.000004 16.132996
										CHANNELS 3 Xrotation Yrotation Zrotation
										End Site
										{
											OFFSET 0.000000 0.000000 0.100006
										}
									}
								}
							}
						}
					}
				}
			}
		}
	}
	JOINT RightUpLeg
	{
		OFFSET -7.357731 1.131821 -1.349213
		CHANNELS 3 Xrotation Yrotation Zrotation
		JOINT RightUpLegRoll
		{
			OFFSET 0.000000 -0.000004 18.916801
			CHANNELS 3 Xrotation Yrotation Zrotation
			JOINT RightLeg
			{
				OFFSET 0.000000 0.000004 -23.425598
				CHANNELS 3 Xrotation Yrotation Zrotation
				JOINT RightLegRoll
				{
					OFFSET 0.000000 -0.000004 23.502304
					CHANNELS 3 Xrotation Yrotation Zrotation
					JOINT RightFoot
					{
						OFFSET 0.000000 -0.000004 19.561714
						CHANNELS 3 Xrotation Yrotation Zrotation
						JOINT RightToeBase
						{
							OFFSET 0.000000 -0.000004 16.352600
							CHANNELS 3 Xrotation Yrotation Zrotation
							End Site
							{
								OFFSET 0.006931 0.912838 7.919434
							}
						}
					}
				}
			}
		}
	}
	JOINT LeftUpLeg
	{
		OFFSET 7.357731 1.131821 -1.349213
		CHANNELS 3 Xrotation Yrotation Zrotation
		JOINT LeftUpLegRoll
		{
			OFFSET 0.000000 -0.000004 18.916901
			CHANNELS 3 Xrotation Yrotation Zrotation
			JOINT LeftLeg
			{
				OFFSET 0.000000 -0.000004 23.425507
				CHANNELS 3 Xrotation Yrotation Zrotation
				JOINT LeftLegRoll
				{
					OFFSET 0.000000 -0.000004 23.719498
					CHANNELS 3 Xrotation Yrotation Zrotation
					JOINT LeftFoot
					{
						OFFSET 0.000000 -0.000004 19.344406
						CHANNELS 3 Xrotation Yrotation Zrotation
						JOINT LeftToeBase
						{
							OFFSET 0.000000 -0.000004 16.352600
							CHANNELS 3 Xrotation Yrotation Zrotation
							End Site
							{
								OFFSET -0.031063 0.912838 7.919434
							}
						}
					}
				}
			}
		}
	}
}
MOTION
Frames: 9
Frame Time: 0.041667
49.065704 1.901020 55.678181 -32.035708 2.066188 9.318529 4.583354 -1.425199 -1.234540 13.130854 -2.953773 -2.331976 14.776353 -2.981595 -2.296609 14.424774 0.505861 -1.564314 -0.970013 1.797253 -1.753585 -13.478383 -65.580068 -16.151521 -29.207115 -104.641517 -44.354825 -0.000000 0.000001 -0.000001 84.803922 -7.029756 0.284224 -0.000002 -0.000015 -3.008050 -4.999853 -7.999298 0.000048 -0.042952 64.459692 0.747783 -40.422361 105.975569 48.536530 -0.000001 0.000012 -0.000000 68.501559 7.661946 -2.470148 -0.000011 -0.000001 3.000000 -5.000073 7.999135 -0.000110 -51.712178 -153.976752 19.046614 179.999991 0.000007 -1.964002 83.898103 1.535007 -0.881280 0.000002 -0.000003 2.430941 75.202630 9.634040 -6.799077 25.458465 -7.355559 0.005193 -60.378722 167.167787 -4.501620 -0.000005 -0.000001 -2.123290 -97.744474 -6.557572 -5.842344 0.000003 0.000008 -2.501240 72.432066 -8.443705 2.553858 26.307681 7.347737 -0.109510 
49.069500 1.912155 55.678085 -32.034707 2.070324 9.326691 4.586591 -1.423967 -1.234528 13.138249 -2.952564 -2.330835 14.783752 -2.980372 -2.295480 14.415013 0.429720 -1.562953 -0.977018 1.870069 -1.757044 -13.482004 -65.652079 -16.158134 -29.307389 -104.563783 -44.453538 -0.000001 -0.000000 -0.000001 84.847540 -7.015152 0.264764 -0.000002 -0.000017 -3.008052 -4.999853 -7.999297 0.000048 -0.048340 64.418895 0.749123 -40.354783 105.998484 48.475417 -0.000002 0.000010 0.000001 68.523647 7.652411 -2.463498 -0.000011 -0.000003 3.000002 -5.000070 7.999132 -0.000109 -51.712742 -153.976233 19.049662 179.999991 0.000005 -1.964004 83.903355 1.537440 -0.881719 0.000001 -0.000004 2.430959 75.194639 9.633381 -6.793277 25.458466 -7.355560 0.005192 -60.384002 167.182895 -4.495743 -0.000005 -0.000004 -2.123681 -97.740451 -6.561560 -5.844384 0.000003 0.000008 -2.501261 72.425796 -8.443868 2.553154 26.307073 7.347728 -0.109990 
49.069603 1.912926 55.676693 -32.033898 2.074660 9.334960 4.589751 -1.422726 -1.234519 13.145546 -2.951424 -2.329636 14.791046 -2.979218 -2.294288 14.403773 0.352664 -1.561643 -0.981886 1.944166 -1.760657 -13.486536 -65.723714 -16.165751 -29.409176 -104.486144 -44.552819 -0.000001 0.000001 -0.000000 84.889525 -7.001248 0.246068 -0.000002 -0.000016 -3.008049 -4.999852 -7.999293 0.000049 -0.054807 64.377087 0.751592 -40.283472 106.023073 48.410844 -0.000001 0.000011 0.000000 68.545053 7.643030 -2.456866 -0.000011 -0.000003 3.000002 -5.000072 7.999136 -0.000110 -51.712455 -153.976083 19.054088 179.999991 0.000004 -1.964004 83.908273 1.539758 -0.882162 -0.000000 -0.000003 2.430978 75.186955 9.632808 -6.787695 25.458461 -7.355560 0.005194 -60.389118 167.197936 -4.490301 -0.000006 -0.000003 -2.124051 -97.736763 -6.565607 -5.846442 0.000004 0.000006 -2.501287 72.420093 -8.444065 2.552794 26.306373 7.347729 -0.110508 
49.070103 1.914127 55.675896 -32.033201 2.079144 9.343321 4.592866 -1.421483 -1.234519 13.152841 -2.950323 -2.328396 14.798339 -2.978103 -2.293048 14.391567 0.274971 -1.560387 -0.985249 2.019172 -1.764383 -13.491664 -65.794980 -16.173975 -29.508459 -104.410342 -44.648871 -0.000000 -0.000000 -0.000002 84.930411 -6.987816 0.227971 -0.000002 -0.000016 -3.008050 -4.999853 -7.999296 0.000049 -0.062023 64.334686 0.754840 -40.213231 106.047873 48.347655 -0.000001 0.000010 0.000001 68.565879 7.633843 -2.450448 -0.000009 -0.000002 3.000001 -5.000073 7.999135 -0.000108 -51.712155 -153.975126 19.058220 179.999991 0.000006 -1.964003 83.912958 1.542006 -0.882905 0.000001 -0.000003 2.430999 75.179598 9.632199 -6.782241 25.458468 -7.355560 0.005194 -60.394418 167.212470 -4.484187 -0.000005 -0.000003 -2.124410 -97.733409 -6.569706 -5.848533 0.000003 0.000007 -2.501330 72.414738 -8.444279 2.552455 26.305456 7.347731 -0.111014 
49.074009 1.922874 55.677883 -32.032597 2.083714 9.351734 4.595967 -1.420231 -1.234524 13.160041 -2.949245 -2.327128 14.805538 -2.977018 -2.291784 14.378685 0.196912 -1.559180 -0.987760 2.094700 -1.768163 -13.497203 -65.866116 -16.182629 -29.610905 -104.333715 -44.747807 -0.000000 0.000001 -0.000000 84.970682 -6.974600 0.210018 -0.000001 -0.000015 -3.008049 -4.999854 -7.999296 0.000050 -0.069655 64.291881 0.758518 -40.140953 106.073466 48.282529 -0.000002 0.000012 -0.000000 68.586519 7.624724 -2.444010 -0.000010 -0.000001 3.000002 -5.000072 7.999133 -0.000110 -51.712144 -153.973501 19.061516 179.999991 0.000004 -1.964002 83.917439 1.544213 -0.883453 0.000001 -0.000001 2.431027 75.172365 9.631587 -6.776804 25.458468 -7.355562 0.005194 -60.399431 167.227456 -4.479271 -0.000005 -0.000003 -2.124760 -97.730144 -6.573874 -5.850617 0.000002 0.000007 -2.501379 72.409690 -8.444463 2.552247 26.304450 7.347733 -0.111525 
49.078705 1.932045 55.679981 -32.032108 2.088296 9.360154 4.599053 -1.418988 -1.234517 13.167238 -2.948183 -2.325845 14.812732 -2.975942 -2.290518 14.365831 0.118761 -1.558017 -0.990054 2.170347 -1.771963 -13.502834 -65.937150 -16.191375 -29.712590 -104.258022 -44.845697 -0.000000 -0.000000 -0.000002 85.010775 -6.961530 0.192137 -0.000002 -0.000017 -3.008051 -4.999853 -7.999294 0.000050 -0.077372 64.248987 0.762286 -40.068905 106.099093 48.217690 -0.000002 0.000013 0.000000 68.606955 7.615636 -2.437645 -0.000011 -0.000002 3.000001 -5.000071 7.999134 -0.000109 -51.711652 -153.972435 19.065915 179.999991 0.000007 -1.964004 83.922015 1.546382 -0.884095 0.000001 -0.000004 2.431060 75.165159 9.631029 -6.771459 25.458468 -7.355560 0.005194 -60.404561 167.241908 -4.473399 -0.000005 -0.000004 -2.125120 -97.726873 -6.578034 -5.852723 0.000003 0.000007 -2.501419 72.404650 -8.444638 2.552039 26.303537 7.347731 -0.112046 
49.083309 1.948318 55.681984 -32.031408 2.092850 9.368553 4.602151 -1.417736 -1.234519 13.174535 -2.947102 -2.324581 14.820027 -2.974847 -2.289262 14.353202 0.040791 -1.556878 -0.992786 2.245743 -1.775714 -13.508384 -66.008307 -16.199998 -29.817269 -104.181490 -44.946818 -0.000001 0.000001 -0.000001 85.051203 -6.948364 0.174167 -0.000002 -0.000015 -3.008051 -4.999853 -7.999296 0.000050 -0.084846 64.206271 0.765799 -39.999336 106.123962 48.155310 -0.000002 0.000011 -0.000000 68.627692 7.606489 -2.431204 -0.000011 -0.000002 3.000002 -5.000073 7.999133 -0.000107 -51.711263 -153.971438 19.070083 179.999991 0.000008 -1.964002 83.926598 1.548586 -0.884744 0.000001 -0.000003 2.431091 75.157844 9.630458 -6.766007 25.458466 -7.355561 0.005193 -60.409786 167.256402 -4.467499 -0.000005 -0.000004 -2.125471 -97.723703 -6.582061 -5.854805 0.000003 0.000007 -2.501461 72.399520 -8.444862 2.551815 26.302529 7.347737 -0.112560 
49.084904 1.943382 55.677898 -32.030715 2.097295 9.376893 4.605282 -1.416494 -1.234522 13.181731 -2.945984 -2.323353 14.827221 -2.973713 -2.288042 14.341401 -0.036722 -1.555751 -0.996591 2.320489 -1.779365 -13.513560 -66.079703 -16.208187 -29.922939 -104.104978 -45.049414 -0.000000 -0.000000 -0.000001 85.092498 -6.934861 0.155866 -0.000001 -0.000018 -3.008051 -4.999853 -7.999296 0.000048 -0.091755 64.164067 0.768719 -39.929692 106.148810 48.092612 -0.000002 0.000009 0.000001 68.648715 7.597244 -2.424605 -0.000012 -0.000003 3.000000 -5.000072 7.999134 -0.000110 -51.711062 -153.970523 19.074070 179.999991 0.000006 -1.964003 83.931304 1.550858 -0.885283 0.000002 -0.000003 2.431110 75.150386 9.629865 -6.760547 25.458466 -7.355558 0.005195 -60.414915 167.271401 -4.462280 -0.000005 -0.000002 -2.125840 -97.720158 -6.586229 -5.856876 0.000003 0.000007 -2.501500 72.394042 -8.445057 2.551473 26.301720 7.347735 -0.113073 
49.096699 1.938602 55.667480 -32.029902 2.101571 9.385136 4.608469 -1.415252 -1.234514 13.189129 -2.944824 -2.322173 14.834619 -2.972539 -2.286873 14.330727 -0.113507 -1.554623 -1.002105 2.394215 -1.782864 -13.518069 -66.151366 -16.215629 -30.031457 -104.027606 -45.155631 -0.000001 0.000000 -0.000002 85.135050 -6.920919 0.136742 -0.000002 -0.000017 -3.008051 -4.999853 -7.999296 0.000050 -0.097774 64.122567 0.770709 -39.859437 106.173481 48.028968 -0.000002 0.000011 -0.000000 68.670230 7.587886 -2.417954 -0.000009 -0.000003 3.000002 -5.000072 7.999133 -0.000109 -51.711246 -153.969813 19.077483 179.999991 0.000006 -1.964003 83.936345 1.553207 -0.885828 0.000000 -0.000003 2.431128 75.142668 9.629224 -6.754967 25.458468 -7.355562 0.005195 -60.420051 167.286414 -4.456563 -0.000005 -0.000004 -2.126209 -97.716457 -6.590264 -5.858941 0.000004 0.000007 -2.501532 72.388121 -8.445269 2.550991 26.301013 7.347735 -0.113570 
